<svg xmlns="http://www.w3.org/2000/svg" viewBox="0 0 640 760" width="640" height="760" role="img" aria-label="Foto da sócia-proprietária">
  <!-- PLACEHOLDER — substituir por assets/img/foto-socia.jpg (foto real da proprietária) -->
  <defs>
    <linearGradient id="gSocia" x1="0" y1="0" x2="1" y2="1">
      <stop offset="0" stop-color="#16305a"/>
      <stop offset="1" stop-color="#0a1729"/>
    </linearGradient>
    <pattern id="gridSocia" width="38" height="38" patternUnits="userSpaceOnUse">
      <path d="M38 0H0V38" fill="none" stroke="#ffffff" stroke-opacity="0.05" stroke-width="1"/>
    </pattern>
  </defs>
  <rect width="640" height="760" fill="url(#gSocia)"/>
  <rect width="640" height="760" fill="url(#gridSocia)"/>
  <circle cx="320" cy="330" r="120" fill="none" stroke="#c9a463" stroke-opacity="0.55" stroke-width="1.5"/>
  <path d="M320 250c-38 0-64 28-64 66 0 30 15 55 34 68-46 16-78 52-88 96h236c-10-44-42-80-88-96 19-13 34-38 34-68 0-38-26-66-64-66z" fill="#ffffff" fill-opacity="0.14"/>
  <text x="320" y="590" text-anchor="middle" font-family="'Inter', Arial, sans-serif" font-size="15" letter-spacing="1.5" fill="#c9a463">FOTO DA SÓCIA-PROPRIETÁRIA</text>
  <text x="320" y="614" text-anchor="middle" font-family="'Inter', Arial, sans-serif" font-size="12" fill="#ffffff" fill-opacity="0.65">substituir por foto-socia.jpg</text>
</svg>
